HIERARCHY
ROOT pelvis
{
  OFFSET 0 100 0
  CHANNELS 6 Xposition Yposition Zposition Zrotation Xrotation Yrotation
  JOINT pelvis_right_femur
  {
    OFFSET -10.78128 -3.44521 -0.5502486
    CHANNELS 3 Zrotation Xrotation Yrotation
    JOINT right_femur_tibia
    {
      OFFSET -0.8047443 -44.0398 -0.1307829
      CHANNELS 3 Zrotation Xrotation Yrotation
      JOINT right_tibia_foot
      {
        OFFSET 3.006224 -47.83518 -5
        CHANNELS 3 Zrotation Xrotation Yrotation
        End Site
        {
          OFFSET 0 -5 15
        }
      }
    }
  }
  JOINT pelvis_left_femur
  {
    OFFSET 10.78128 -3.44521 -0.5502486
    CHANNELS 3 Zrotation Xrotation Yrotation
    JOINT left_femur_tibia
    {
      OFFSET 0.8047443 -44.0398 -0.1307829
      CHANNELS 3 Zrotation Xrotation Yrotation
      JOINT left_tibia_foot
      {
        OFFSET -4.370144 -48.10324 -4.275266
        CHANNELS 3 Zrotation Xrotation Yrotation
        End Site
        {
          OFFSET 0 -5 15
        }
      }
    }
  }
  JOINT pelvis_spine1
  {
    OFFSET 0 6.468898 -3.129235
    CHANNELS 3 Zrotation Xrotation Yrotation
    JOINT spine1
    {
      OFFSET 0 23.15396 4.99043
      CHANNELS 3 Zrotation Xrotation Yrotation
      JOINT spine2
      {
        OFFSET 0 20.79997 -5.064912
        CHANNELS 3 Zrotation Xrotation Yrotation
        JOINT neck
        {
          OFFSET 0 14.38658 9.616178
          CHANNELS 3 Zrotation Xrotation Yrotation
          End Site
          {
            OFFSET 0 20 0
          }
        }
      }
      JOINT right_manubrium
      {
        OFFSET -5.722621 16.35077 3.967754
        CHANNELS 3 Zrotation Xrotation Yrotation
        JOINT right_clavicle
        {
          OFFSET -13.16364 1.694482 -4.693211
          CHANNELS 3 Zrotation Xrotation Yrotation
          JOINT right_humerus
          {
            OFFSET -28.5034 -0.3100689 -2.792744
            CHANNELS 3 Zrotation Xrotation Yrotation
            JOINT right_radius
            {
              OFFSET -25.15693 0.02248979 -1.271978
              CHANNELS 3 Zrotation Xrotation Yrotation
              End Site
              {
                OFFSET -15 0 0
              }
            }
          }
        }
      }
      JOINT left_manubrium
      {
        OFFSET 5.722621 16.35077 3.967754
        CHANNELS 3 Zrotation Xrotation Yrotation
        JOINT left_clavicle
        {
          OFFSET 13.16364 1.694482 -4.693211
          CHANNELS 3 Zrotation Xrotation Yrotation
          JOINT left_humerus
          {
            OFFSET 29.39168 -1.063119 -2.237045
            CHANNELS 3 Zrotation Xrotation Yrotation
            JOINT left_radius
            {
              OFFSET 24.59957 -0.9528479 0.9047498
              CHANNELS 3 Zrotation Xrotation Yrotation
              End Site
              {
                OFFSET 15 -0 -0
              }
            }
          }
        }
      }
    }
  }
}
MOTION
Frames: 11
Frame Time: 0.0416666666667
-196.5496 111.3278 -66.64007 7.349202 -9.62015 47.3817 7.232117 14.15066 -1.858329 -0 15.40449 -0 -5.43474 -1.276678 -1.247715 1.577826 -12.52136 -7.145192 -0 24.89557 -0 -1.009089 -3.838944 17.39461 3.981421 -5.33804 6.880565 -0.3841908 17.9186 -4.914136 3.502854 22.5199 2.547439 -1.774083 -23.49704 8.855447 -8.192012 -32.24566 11.87215 96.33947 1.000215 -12.17034 -0 0 23.23081 -33.16848 19.62696 22.30297 1.098382 -21.43428 -9.186059 -101.5262 20.89582 39.43811 0 0 -10.79895 -2.201666 20.20967 17.44347
-191.7645 111.3121 -63.20148 7.230832 -9.709069 46.67662 7.232117 14.15066 -1.858329 -0 15.40449 -0 -5.43474 -1.276678 -1.247715 1.577826 -12.52136 -7.145192 -0 24.89557 -0 -1.009089 -3.838944 17.39461 3.981421 -5.33804 6.880565 -0.3841908 17.9186 -4.914136 3.502854 22.5199 2.547439 -1.774083 -23.49704 8.855447 -8.192012 -32.24566 11.87215 96.33947 1.000215 -12.17034 -0 0 23.23081 -33.16848 19.62696 22.30297 1.098382 -21.43428 -9.186059 -101.5262 20.89582 39.43811 0 0 -10.79895 -2.201666 20.20967 17.44347
-187.0217 111.2964 -59.70462 7.111329 -9.796544 45.97117 7.232117 14.15066 -1.858329 -0 15.40449 -0 -5.43474 -1.276678 -1.247715 1.577826 -12.52136 -7.145192 -0 24.89557 -0 -1.009089 -3.838944 17.39461 3.981421 -5.33804 6.880565 -0.3841908 17.9186 -4.914136 3.502854 22.5199 2.547439 -1.774083 -23.49704 8.855447 -8.192012 -32.24566 11.87215 96.33947 1.000215 -12.17034 -0 0 23.23081 -33.16848 19.62696 22.30297 1.098382 -21.43428 -9.186059 -101.5262 20.89582 39.43811 0 0 -10.79895 -2.201666 20.20967 17.44347
-182.322 111.2808 -56.15002 6.99071 -9.882563 45.26535 7.232117 14.15066 -1.858329 -0 15.40449 -0 -5.43474 -1.276678 -1.247715 1.577826 -12.52136 -7.145192 -0 24.89557 -0 -1.009089 -3.838944 17.39461 3.981421 -5.33804 6.880565 -0.3841908 17.9186 -4.914136 3.502854 22.5199 2.547439 -1.774083 -23.49704 8.855447 -8.192012 -32.24566 11.87215 96.33947 1.000215 -12.17034 -0 0 23.23081 -33.16848 19.62696 22.30297 1.098382 -21.43428 -9.186059 -101.5262 20.89582 39.43811 0 0 -10.79895 -2.201666 20.20967 17.44347
-177.6662 111.2651 -52.53821 6.868993 -9.967111 44.55917 7.232117 14.15066 -1.858329 -0 15.40449 -0 -5.43474 -1.276678 -1.247715 1.577826 -12.52136 -7.145192 -0 24.89557 -0 -1.009089 -3.838944 17.39461 3.981421 -5.33804 6.880565 -0.3841908 17.9186 -4.914136 3.502854 22.5199 2.547439 -1.774083 -23.49704 8.855447 -8.192012 -32.24566 11.87215 96.33947 1.000215 -12.17034 -0 0 23.23081 -33.16848 19.62696 22.30297 1.098382 -21.43428 -9.186059 -101.5262 20.89582 39.43811 0 0 -10.79895 -2.201666 20.20967 17.44347
-173.0549 111.2495 -48.86972 6.746196 -10.05017 43.85262 7.232117 14.15066 -1.858329 -0 15.40449 -0 -5.43474 -1.276678 -1.247715 1.577826 -12.52136 -7.145192 -0 24.89557 -0 -1.009089 -3.838944 17.39461 3.981421 -5.33804 6.880565 -0.3841908 17.9186 -4.914136 3.502854 22.5199 2.547439 -1.774083 -23.49704 8.855447 -8.192012 -32.24566 11.87215 96.33947 1.000215 -12.17034 -0 0 23.23081 -33.16848 19.62696 22.30297 1.098382 -21.43428 -9.186059 -101.5262 20.89582 39.43811 0 0 -10.79895 -2.201666 20.20967 17.44347
-168.4888 111.2338 -45.14512 6.622336 -10.13174 43.14571 7.232117 14.15066 -1.858329 -0 15.40449 -0 -5.43474 -1.276678 -1.247715 1.577826 -12.52136 -7.145192 -0 24.89557 -0 -1.009089 -3.838944 17.39461 3.981421 -5.33804 6.880565 -0.3841908 17.9186 -4.914136 3.502854 22.5199 2.547439 -1.774083 -23.49704 8.855447 -8.192012 -32.24566 11.87215 96.33947 1.000215 -12.17034 -0 0 23.23081 -33.16848 19.62696 22.30297 1.098382 -21.43428 -9.186059 -101.5262 20.89582 39.43811 0 0 -10.79895 -2.201666 20.20967 17.44347
-163.9686 111.2181 -41.36495 6.497432 -10.21179 42.43845 7.232117 14.15066 -1.858329 -0 15.40449 -0 -5.43474 -1.276678 -1.247715 1.577826 -12.52136 -7.145192 -0 24.89557 -0 -1.009089 -3.838944 17.39461 3.981421 -5.33804 6.880565 -0.3841908 17.9186 -4.914136 3.502854 22.5199 2.547439 -1.774083 -23.49704 8.855447 -8.192012 -32.24566 11.87215 96.33947 1.000215 -12.17034 -0 0 23.23081 -33.16848 19.62696 22.30297 1.098382 -21.43428 -9.186059 -101.5262 20.89582 39.43811 0 0 -10.79895 -2.201666 20.20967 17.44347
-159.4949 111.2025 -37.52979 6.371502 -10.29032 41.73083 7.232117 14.15066 -1.858329 -0 15.40449 -0 -5.43474 -1.276678 -1.247715 1.577826 -12.52136 -7.145192 -0 24.89557 -0 -1.009089 -3.838944 17.39461 3.981421 -5.33804 6.880565 -0.3841908 17.9186 -4.914136 3.502854 22.5199 2.547439 -1.774083 -23.49704 8.855447 -8.192012 -32.24566 11.87215 96.33947 1.000215 -12.17034 -0 0 23.23081 -33.16848 19.62696 22.30297 1.098382 -21.43428 -9.186059 -101.5262 20.89582 39.43811 0 0 -10.79895 -2.201666 20.20967 17.44347
-155.0685 111.1868 -33.6402 6.244564 -10.36732 41.02286 7.232117 14.15066 -1.858329 -0 15.40449 -0 -5.43474 -1.276678 -1.247715 1.577826 -12.52136 -7.145192 -0 24.89557 -0 -1.009089 -3.838944 17.39461 3.981421 -5.33804 6.880565 -0.3841908 17.9186 -4.914136 3.502854 22.5199 2.547439 -1.774083 -23.49704 8.855447 -8.192012 -32.24566 11.87215 96.33947 1.000215 -12.17034 -0 0 23.23081 -33.16848 19.62696 22.30297 1.098382 -21.43428 -9.186059 -101.5262 20.89582 39.43811 0 0 -10.79895 -2.201666 20.20967 17.44347
-150.69 111.1711 -29.69676 6.116637 -10.44276 40.31455 7.232117 14.15066 -1.858329 -0 15.40449 -0 -5.43474 -1.276678 -1.247715 1.577826 -12.52136 -7.145192 -0 24.89557 -0 -1.009089 -3.838944 17.39461 3.981421 -5.33804 6.880565 -0.3841908 17.9186 -4.914136 3.502854 22.5199 2.547439 -1.774083 -23.49704 8.855447 -8.192012 -32.24566 11.87215 96.33947 1.000215 -12.17034 -0 0 23.23081 -33.16848 19.62696 22.30297 1.098382 -21.43428 -9.186059 -101.5262 20.89582 39.43811 0 0 -10.79895 -2.201666 20.20967 17.44347
